<?xml version="1.0" encoding="utf-8"?>
<!-- Generator: Adobe Illustrator 27.0.1, SVG Export Plug-In . SVG Version: 6.00 Build 0)  -->
<svg version="1.1" id="Layer_1" xmlns="http://www.w3.org/2000/svg" xmlns:xlink="http://www.w3.org/1999/xlink" x="0px" y="0px"
	 viewBox="0 0 550.1 86" style="enable-background:new 0 0 550.1 86;" xml:space="preserve">
<style type="text/css">
	.st0{fill:#00A651;}
</style>
<g>
	<path class="st0" d="M33.5,0.4l-1.8,11.9h-7.8l-9,60.1H0l9-60.1H1.2L2.9,0.4H33.5z"/>
	<path class="st0" d="M54.9,57.7c-2,13-4,15.1-17.4,15.1c-9.1,0-13.6-0.8-13.6-7.3c0-1.4,0.2-4.1,0.7-7.8l4.4-29.3
		c2-12.9,3.6-15.1,17.3-15.1c9.1,0,13.7,0.8,13.7,7.6c0,1.7-0.3,4.1-0.8,7.4L54.9,57.7z M46.7,25.6c0-1.5-0.5-2.1-2-2.1
		c-1.8,0-2.1,1.3-2.5,3.5l-4.8,32.2c-0.1,0.7-0.2,1.2-0.2,1.6c0,1.3,0.4,2,1.8,2c2,0,2.3-1.2,2.7-3.5L46.5,27
		C46.5,26.2,46.7,25.8,46.7,25.6z"/>
	<path class="st0" d="M82.8,0.4l-2,13.3h5.1l-1.5,10.1h-5l-5.2,34.8c-0.2,0.9-0.3,1.6-0.3,2c0,1.4,0.8,2.1,2.3,2.1h2.3l-1.5,9.8
		h-6.1c-7,0-10.5-1.9-10.5-6.6c0-2,0.4-4.5,0.8-7.4l5.2-34.8h-3.5l1.5-10.1h3.5l2-13.3H82.8z"/>
	<path class="st0" d="M111.1,72.4H98.2l0.4-2.7c-3,2-5.7,3-8.7,3c-5.2,0-7.6-2.4-7.6-7.6c0-2,0.4-4.4,0.8-7.4L84,52
		c0.8-5.6,2.5-7.8,7.4-10.5l12.4-6.7l1.2-7.7c0.2-1,0.3-1.4,0.3-1.4c0-1.5-0.4-2.1-1.8-2.1c-2,0-2.4,1.2-2.7,3.5l-1,6.6H86.7
		l0.8-5.2c2-12.8,3.5-15.1,17.3-15.1c9.1,0,13.7,0.8,13.7,7.6c0,1.5-0.3,4-0.8,7.4L111.1,72.4z M99.6,48.1c-2.2,1-2.6,2.7-2.9,5.1
		l-0.9,5.9c-0.1,0.6-0.2,1.2-0.2,1.6c0,1.3,0.4,2,1.8,2c1.9,0,2.3-1.2,2.7-3.5l1.9-12.1L99.6,48.1z"/>
	<path class="st0" d="M141,0.4l-10.8,72h-12.9l10.7-72H141z"/>
	<path class="st0" d="M198,25.5h-14.8l1.5-10.3c0.2-1,0.2-1.4,0.2-1.4c0-1.5-0.6-2.1-2.1-2.1c-1.8,0-2.4,1.3-2.7,3.5l-1,6.8
		c-0.1,0.4-0.2,1-0.2,1.8c0,1.2,0.5,2.1,2.5,3.3l8.6,5.1c3.7,2.1,5.6,5.2,5.6,9.1c0,1.2-0.2,2.2-0.4,3.3l-2,13.5
		c-0.8,5.1-1.2,8.9-3.6,11.5c-2.8,3.1-7.7,3.4-15.7,3.4c-10.9,0-15.9-0.6-15.9-8c0-1.2,0.1-3.5,0.6-6.9l2.2-14.5h15.1l-2.1,14.1
		c-0.1,0.4-0.1,0.8-0.1,1.4c0,1.5,0.6,2.1,2.1,2.1c1.8,0,2.3-1.2,2.7-3.5l1.6-10.7c0.1-0.6,0.2-1.2,0.2-1.6c0-1.3-0.2-2.1-2.4-3.5
		l-9.4-5.7c-3.3-2-5-5.1-5-9.2c0-1.3,0.2-2.6,0.4-3.7l1.2-8.4c2-13.3,4.8-14.8,19.5-14.8c10.7,0,15.9,0.4,15.9,8
		c0,2-0.4,4.3-0.8,6.8L198,25.5z"/>
	<path class="st0" d="M226.6,72.4h-12.9l0.4-2.7c-3,2-5.7,3-8.7,3c-5.2,0-7.6-2.4-7.6-7.6c0-2,0.4-4.4,0.8-7.4l0.9-5.8
		c0.8-5.6,2.5-7.8,7.4-10.5l12.4-6.7l1.2-7.7c0.2-1,0.3-1.4,0.3-1.4c0-1.5-0.4-2.1-1.8-2.1c-2,0-2.4,1.2-2.7,3.5l-1,6.6h-12.9
		l0.8-5.2c2-12.8,3.5-15.1,17.3-15.1c9.1,0,13.7,0.8,13.7,7.6c0,1.5-0.3,4-0.8,7.4L226.6,72.4z M215.2,48.1c-2.2,1-2.6,2.7-2.9,5.1
		l-0.9,5.9c-0.1,0.6-0.2,1.2-0.2,1.6c0,1.3,0.4,2,1.8,2c1.9,0,2.3-1.2,2.7-3.5l1.9-12.1L215.2,48.1z"/>
	<path class="st0" d="M263.1,0.1l-1.4,9.8h-2.8c-2,0-2.8,1-3.1,2.7l-0.2,1.1h5.5l-1.5,10.1h-5.5l-7.3,48.6h-12.9l7.3-48.6h-3.5
		l1.5-10.1h3.5l0.2-1.3c1.3-8.6,2.8-12.3,13.6-12.3H263.1z"/>
	<path class="st0" d="M270.4,59.2c-0.1,0.7-0.2,1.2-0.2,1.6c0,1.3,0.4,2,1.8,2c2,0,2.3-1.2,2.7-3.5l1.2-8.3h12.9l-1,6.8
		c-2,13-4,15.1-17.4,15.1c-9.1,0-13.6-0.8-13.6-7.3c0-1.4,0.2-4.1,0.7-7.8l4.4-29.3c2-12.9,3.6-15.1,17.3-15.1
		c9.1,0,13.7,0.8,13.7,7.6c0,1.5-0.3,4-0.8,7.4l-2.5,16.5h-17.2L270.4,59.2z M278.3,34.8l1.2-7.8c0.1-0.9,0.3-1.3,0.3-1.4
		c0-1.5-0.5-2.1-2-2.1c-1.8,0-2.1,1.3-2.5,3.5l-1.2,7.8H278.3z"/>
	<path class="st0" d="M315.8,0.4l-2,13.3h5.1l-1.5,10.1h-5l-5.2,34.8c-0.2,0.9-0.3,1.6-0.3,2c0,1.4,0.8,2.1,2.3,2.1h2.3l-1.5,9.8
		h-6.1c-7,0-10.5-1.9-10.5-6.6c0-2,0.4-4.5,0.8-7.4l5.2-34.8h-3.5l1.5-10.1h3.5l2-13.3H315.8z"/>
	<path class="st0" d="M333.6,13.7l-3.6,41h0.6l8.7-41h12.7l-17.2,58.7c-2.6,8.8-4.5,13.6-14.2,13.6h-12.1l1.5-10h6.7
		c3.1,0,4.3-1.1,4.3-5l-0.2-57.3H333.6z"/>
	<path class="st0" d="M378.4,4.3c3-4.2,8-4.3,16.6-4.3c10.7,0,15.8,0.5,15.8,7.9c0,1.5-0.3,3.9-0.7,7.1l-1.5,10h-15l1.4-9.6
		c0.2-0.9,0.2-1.4,0.2-1.5c0-1.6-0.6-2.1-2.2-2.1c-2,0-2.3,1.4-2.7,3.6l-6.3,42.1c0,0.3-0.1,0.7-0.1,1.4c0,1.5,0.5,2.1,2,2.1
		s2.5-1.2,2.5-2.1c0-0.1,0.2-0.5,0.3-1.4l1.6-10.5h-2l1.8-11.6h16.9l-5.5,37h-6.6l-2-4.8c-4.3,4.4-7.4,5.3-13,5.3
		c-7.7,0-11.5-2.2-11.5-7.5c0-1.2,0.2-3.8,0.7-7.4l6.4-43C376.1,10.1,376.8,6.6,378.4,4.3z"/>
	<path class="st0" d="M441.5,37.8h-11.6l1.5-10c0.1-0.7,0.1-1.2,0.1-1.4c0-1.3-0.5-1.9-1.8-1.9c-1.6,0-2.2,1-2.6,3.3l-6.7,44.7
		h-12.9l8.7-58.7h12.9l-0.4,2.7c2.9-2,5.5-3.1,7.6-3.1c4.7,0,7.2,2.9,7.2,8.7c0,0.9-0.3,3.5-0.9,7.5L441.5,37.8z"/>
	<path class="st0" d="M472.8,57.7c-2,13-4,15.1-17.4,15.1c-9.1,0-13.6-0.8-13.6-7.3c0-1.4,0.2-4.1,0.7-7.8l4.4-29.3
		c2-12.9,3.6-15.1,17.3-15.1c9.1,0,13.7,0.8,13.7,7.6c0,1.7-0.3,4.1-0.8,7.4L472.8,57.7z M464.6,25.6c0-1.5-0.5-2.1-2-2.1
		c-1.8,0-2.1,1.3-2.5,3.5l-4.8,32.2c-0.1,0.7-0.2,1.2-0.2,1.6c0,1.3,0.4,2,1.8,2c2,0,2.3-1.2,2.7-3.5l4.8-32.2
		C464.4,26.2,464.6,25.8,464.6,25.6z"/>
	<path class="st0" d="M497.9,13.7l-6.6,44.7c-0.1,0.7-0.2,1.2-0.2,1.4c0,1.3,0.6,1.9,1.9,1.9c1.6,0,2.2-1,2.6-3.3l6.6-44.7h12.9
		l-8.8,58.7h-12.9l0.4-2.7c-2.8,2-5.3,3.1-8,3.1c-5.2,0-8.2-3-8.2-8.7c0-1.2,0.4-3.7,0.9-7.5l6.4-42.8H497.9z"/>
	<path class="st0" d="M545.1,56.6c-1.4,9.8-3.5,16.1-12.1,16.1c-2.6,0-4.7-1-7-3.1L523.5,86h-12.9l10.7-72.3h12.9l-0.4,2.7
		c2.8-2,5.2-3.1,7.9-3.1c5.2,0,8.2,3,8.2,8.7c0,1.4-0.4,4-0.9,7.5L545.1,56.6z M536.7,26.3c0-1.1-0.7-1.8-1.9-1.8
		c-1.6,0-2.3,1.2-2.7,3.4l-4.5,30.3c-0.1,0.9-0.2,1.4-0.2,1.5c0,1.2,0.6,1.9,1.9,1.9c1.6,0,2.3-1.1,2.7-3.4l4.5-30.3
		C536.6,27.2,536.7,26.7,536.7,26.3z"/>
</g>
</svg>
